<svg width="800" height="600" viewBox="0 0 800 600" fill="none" xmlns="http://www.w3.org/2000/svg">
  <rect width="800" height="600" fill="url(#paint0_linear_0_1)"/>
  <rect x="40" y="40" width="720" height="520" rx="20" fill="#1a1a1b" stroke="#3a3a3b"/>

  <!-- Header -->
  <rect x="60" y="60" width="680" height="60" rx="10" fill="#2a2a2b"/>
  <circle cx="90" cy="90" r="15" fill="#7c3aed"/>
  <rect x="120" y="80" width="120" height="8" rx="4" fill="#a1a1aa"/>
  <rect x="120" y="95" width="80" height="6" rx="3" fill="#71717a"/>

  <!-- Navigation -->
  <rect x="60" y="140" width="150" height="30" rx="15" fill="#7c3aed"/>
  <rect x="230" y="140" width="100" height="30" rx="15" fill="#2a2a2b"/>
  <rect x="350" y="140" width="100" height="30" rx="15" fill="#2a2a2b"/>

  <!-- Main Content -->
  <rect x="60" y="190" width="320" height="200" rx="10" fill="#2a2a2b"/>
  <rect x="400" y="190" width="360" height="60" rx="8" fill="#2a2a2b"/>
  <rect x="400" y="270" width="360" height="60" rx="8" fill="#2a2a2b"/>
  <rect x="400" y="350" width="360" height="40" rx="8" fill="#10b981"/>

  <!-- Sidebar -->
  <rect x="60" y="410" width="150" height="120" rx="10" fill="#2a2a2b"/>
  <rect x="230" y="410" width="150" height="120" rx="10" fill="#2a2a2b"/>
  <rect x="400" y="410" width="150" height="120" rx="10" fill="#2a2a2b"/>
  <rect x="570" y="410" width="190" height="120" rx="10" fill="#2a2a2b"/>

  <defs>
    <linearGradient id="paint0_linear_0_1" x1="0" y1="0" x2="800" y2="600" gradientUnits="userSpaceOnUse">
      <stop stop-color="#0a0a0b"/>
      <stop offset="1" stop-color="#1a1a1b"/>
    </linearGradient>
  </defs>
</svg>
