<svg width="800" height="600" viewBox="0 0 800 600" fill="none" xmlns="http://www.w3.org/2000/svg">
  <rect width="800" height="600" fill="url(#paint0_linear_0_1)"/>
  <rect x="40" y="40" width="720" height="520" rx="20" fill="#1a1a1b" stroke="#3a3a3b"/>

  <!-- Property Images Gallery -->
  <rect x="60" y="60" width="450" height="250" rx="15" fill="#2a2a2b"/>
  <rect x="80" y="80" width="410" height="210" rx="10" fill="#0a0a0b"/>

  <!-- Thumbnails -->
  <rect x="530" y="60" width="100" height="60" rx="8" fill="#2a2a2b"/>
  <rect x="640" y="60" width="100" height="60" rx="8" fill="#2a2a2b"/>
  <rect x="530" y="130" width="100" height="60" rx="8" fill="#2a2a2b"/>
  <rect x="640" y="130" width="100" height="60" rx="8" fill="#2a2a2b"/>
  <rect x="530" y="200" width="100" height="60" rx="8" fill="#2a2a2b"/>
  <rect x="640" y="200" width="100" height="60" rx="8" fill="#2a2a2b"/>

  <!-- Property Details -->
  <rect x="60" y="330" width="680" height="200" rx="15" fill="#2a2a2b"/>

  <!-- Title and Price -->
  <rect x="80" y="350" width="300" height="25" rx="12" fill="#a1a1aa"/>
  <rect x="500" y="350" width="120" height="25" rx="12" fill="#10b981"/>

  <!-- Rating and Reviews -->
  <circle cx="90" cy="390" r="8" fill="#f59e0b"/>
  <circle cx="110" cy="390" r="8" fill="#f59e0b"/>
  <circle cx="130" cy="390" r="8" fill="#f59e0b"/>
  <circle cx="150" cy="390" r="8" fill="#f59e0b"/>
  <circle cx="170" cy="390" r="8" fill="#f59e0b"/>
  <rect x="190" y="385" width="100" height="10" rx="5" fill="#a1a1aa"/>

  <!-- Amenities -->
  <rect x="80" y="420" width="80" height="30" rx="15" fill="#7c3aed"/>
  <rect x="170" y="420" width="80" height="30" rx="15" fill="#3b82f6"/>
  <rect x="260" y="420" width="80" height="30" rx="15" fill="#10b981"/>
  <rect x="350" y="420" width="80" height="30" rx="15" fill="#f59e0b"/>

  <!-- Contact Button -->
  <rect x="500" y="420" width="120" height="40" rx="20" fill="#7c3aed"/>
  <rect x="640" y="420" width="100" height="40" rx="20" fill="#2a2a2b"/>

  <!-- Description -->
  <rect x="80" y="470" width="400" height="8" rx="4" fill="#71717a"/>
  <rect x="80" y="485" width="350" height="8" rx="4" fill="#71717a"/>
  <rect x="80" y="500" width="300" height="8" rx="4" fill="#71717a"/>

  <defs>
    <linearGradient id="paint0_linear_0_1" x1="0" y1="0" x2="800" y2="600" gradientUnits="userSpaceOnUse">
      <stop stop-color="#0a0a0b"/>
      <stop offset="1" stop-color="#1a1a1b"/>
    </linearGradient>
  </defs>
</svg>
