<svg width="800" height="600" viewBox="0 0 800 600" fill="none" xmlns="http://www.w3.org/2000/svg">
  <rect width="800" height="600" fill="url(#paint0_linear_0_1)"/>
  <rect x="40" y="40" width="720" height="520" rx="20" fill="#1a1a1b" stroke="#3a3a3b"/>

  <!-- Search Header -->
  <rect x="60" y="60" width="680" height="80" rx="10" fill="#2a2a2b"/>
  <rect x="80" y="80" width="400" height="40" rx="20" fill="#0a0a0b"/>
  <circle cx="100" cy="100" r="8" fill="#3b82f6"/>
  <rect x="120" y="95" width="300" height="10" rx="5" fill="#a1a1aa"/>

  <!-- Filters -->
  <rect x="500" y="80" width="100" height="40" rx="20" fill="#7c3aed"/>
  <rect x="620" y="80" width="100" height="40" rx="20" fill="#2a2a2b"/>

  <!-- Property Cards Grid -->
  <rect x="60" y="160" width="330" height="180" rx="15" fill="#2a2a2b"/>
  <rect x="410" y="160" width="330" height="180" rx="15" fill="#2a2a2b"/>
  <rect x="60" y="360" width="330" height="180" rx="15" fill="#2a2a2b"/>
  <rect x="410" y="360" width="330" height="180" rx="15" fill="#2a2a2b"/>

  <!-- Property Card 1 Details -->
  <rect x="80" y="180" width="290" height="100" rx="8" fill="#0a0a0b"/>
  <rect x="80" y="290" width="120" height="20" rx="10" fill="#10b981"/>
  <rect x="220" y="290" width="80" height="20" rx="10" fill="#3b82f6"/>
  <rect x="80" y="315" width="60" height="15" rx="7" fill="#a1a1aa"/>
  <rect x="240" y="315" width="60" height="15" rx="7" fill="#f59e0b"/>

  <!-- Property Card 2 Details -->
  <rect x="430" y="180" width="290" height="100" rx="8" fill="#0a0a0b"/>
  <rect x="430" y="290" width="120" height="20" rx="10" fill="#10b981"/>
  <rect x="570" y="290" width="80" height="20" rx="10" fill="#3b82f6"/>
  <rect x="430" y="315" width="60" height="15" rx="7" fill="#a1a1aa"/>
  <rect x="590" y="315" width="60" height="15" rx="7" fill="#f59e0b"/>

  <defs>
    <linearGradient id="paint0_linear_0_1" x1="0" y1="0" x2="800" y2="600" gradientUnits="userSpaceOnUse">
      <stop stop-color="#0a0a0b"/>
      <stop offset="1" stop-color="#1a1a1b"/>
    </linearGradient>
  </defs>
</svg>
